HIERARCHY
ROOT Hips
{
	OFFSET -0.001795 -0.223333 0.028219
	CHANNELS 6 Xposition Yposition Zposition Zrotation Yrotation Xrotation 
	JOINT LeftUpLeg
	{
		OFFSET 0.069520 -0.091406 -0.006815
		CHANNELS 3 Zrotation Yrotation Xrotation
		JOINT LeftLeg
		{
			OFFSET 0.034277 -0.375199 -0.004496
			CHANNELS 3 Zrotation Yrotation Xrotation
			JOINT LeftFoot
			{
				OFFSET -0.013596 -0.397961 -0.043693
				CHANNELS 3 Zrotation Yrotation Xrotation
				JOINT LeftToe
				{
					OFFSET 0.026358 -0.055791 0.119288
					CHANNELS 3 Zrotation Yrotation Xrotation
					End Site
					{
						OFFSET 0.000000 0.000000 0.000000
					}
				}
			}
		}
	}
	JOINT RightUpLeg
	{
		OFFSET -0.067670 -0.090522 -0.004320
		CHANNELS 3 Zrotation Yrotation Xrotation
		JOINT RightLeg
		{
			OFFSET -0.038290 -0.382569 -0.008850
			CHANNELS 3 Zrotation Yrotation Xrotation
			JOINT RightFoot
			{
				OFFSET 0.015774 -0.398415 -0.042312
				CHANNELS 3 Zrotation Yrotation Xrotation
				JOINT RightToe
				{
					OFFSET -0.025372 -0.048144 0.123348
					CHANNELS 3 Zrotation Yrotation Xrotation
					End Site
					{
						OFFSET 0.000000 0.000000 0.000000
					}
				}
			}
		}
	}
	JOINT Spine
	{
		OFFSET -0.002533 0.108963 -0.026696
		CHANNELS 3 Zrotation Yrotation Xrotation
		JOINT Spine1
		{
			OFFSET 0.005487 0.135180 0.001092
			CHANNELS 3 Zrotation Yrotation Xrotation
			JOINT Spine2
			{
				OFFSET 0.001457 0.052922 0.025425
				CHANNELS 3 Zrotation Yrotation Xrotation
				JOINT Neck
				{
					OFFSET -0.002778 0.213870 -0.042857
					CHANNELS 3 Zrotation Yrotation Xrotation
					JOINT Head
					{
						OFFSET 0.005152 0.064970 0.051349
						CHANNELS 3 Zrotation Yrotation Xrotation
						End Site
						{
							OFFSET 0.000000 0.000000 0.000000
						}
					}
				}
				JOINT LeftShoulder
				{
					OFFSET 0.078845 0.121749 -0.034090
					CHANNELS 3 Zrotation Yrotation Xrotation
					JOINT LeftArm
					{
						OFFSET 0.090977 0.030469 -0.008868
						CHANNELS 3 Zrotation Yrotation Xrotation
						JOINT LeftForeArm
						{
							OFFSET 0.259612 -0.012772 -0.027456
							CHANNELS 3 Zrotation Yrotation Xrotation
							JOINT LeftHand
							{
								OFFSET 0.249234 0.008986 -0.001171
								CHANNELS 3 Zrotation Yrotation Xrotation
								End Site
								{
									OFFSET 0.000000 0.000000 0.000000
								}
							}
						}
					}
				}
				JOINT RightShoulder
				{
					OFFSET -0.081759 0.118833 -0.038615
					CHANNELS 3 Zrotation Yrotation Xrotation
					JOINT RightArm
					{
						OFFSET -0.096012 0.032551 -0.009143
						CHANNELS 3 Zrotation Yrotation Xrotation
						JOINT RightForeArm
						{
							OFFSET -0.253742 -0.013329 -0.021401
							CHANNELS 3 Zrotation Yrotation Xrotation
							JOINT RightHand
							{
								OFFSET -0.255298 0.007772 -0.005559
								CHANNELS 3 Zrotation Yrotation Xrotation
								End Site
								{
									OFFSET 0.000000 0.000000 0.000000
								}
							}
						}
					}
				}
			}
		}
	}
}
MOTION
Frames: 12
Frame Time: 0.050000
0.080872 0.944813 0.457037 -24.310154 26.905308 -15.038768 14.124710 -0.957913 -10.734217 -4.148641 -1.540751 23.003706 6.626894 12.020628 -0.219030 0.000000 0.000000 0.000000 -10.906123 -9.239177 -51.924682 -3.774704 -4.786691 128.820913 3.218330 16.349117 -5.026206 0.000000 0.000000 0.000000 2.243659 -0.506230 6.932754 3.325468 -1.563756 -0.342415 -1.715794 0.111310 10.476730 16.676758 -7.918133 -16.399429 0.000000 0.000000 0.000000 -10.749902 -2.006273 -2.552266 -56.584777 7.008324 -11.150568 -8.543924 -29.068191 2.048783 0.000000 0.000000 0.000000 19.963774 -0.793719 2.412983 56.225717 5.913894 -4.064958 -9.849868 33.393626 0.185178 0.000000 0.000000 0.000000 
0.087803 0.941532 0.450228 -18.181736 23.154628 -10.692878 8.373585 -0.639207 -8.071846 -4.466996 -0.594326 17.640278 7.405185 13.681739 -0.041041 0.000000 0.000000 0.000000 -10.409521 -4.842216 -42.383822 -2.679941 -8.596553 121.813128 1.528740 9.298089 -4.969993 0.000000 0.000000 0.000000 0.409162 -0.207934 4.229661 1.805718 -0.926119 0.424648 -2.305266 0.966676 9.028948 13.787537 -6.209541 -15.846067 0.000000 0.000000 0.000000 -12.161448 -2.189590 -2.561052 -56.646399 8.052664 -11.324570 -5.539708 -24.411171 1.306078 0.000000 0.000000 0.000000 18.157658 -0.142453 1.986869 59.270357 4.799433 -4.089917 -9.652131 34.785718 0.074885 0.000000 0.000000 0.000000 
0.092106 0.939824 0.442548 -14.031972 19.082281 -7.145347 4.361329 -0.585029 -7.688208 -4.523832 -0.148522 14.275094 8.255696 15.435541 -0.293559 0.000000 0.000000 0.000000 -9.109066 -1.750492 -32.467358 -0.314291 -11.577829 112.461091 1.061097 2.160466 0.798747 0.000000 0.000000 0.000000 -1.044139 -0.075534 1.981637 -0.101840 -0.073655 1.260854 -1.020614 0.692478 7.117837 11.542647 -5.130978 -15.214933 0.000000 0.000000 0.000000 -14.078874 -1.472341 -2.776165 -54.944691 9.937618 -11.376863 -3.808685 -21.700727 1.041047 0.000000 0.000000 0.000000 16.989027 2.490811 2.494441 60.042265 5.022355 -3.684296 -8.071115 36.033690 0.120392 0.000000 0.000000 0.000000 
0.094173 0.934928 0.433269 -10.177845 13.057361 -4.738490 1.074320 -0.621723 -7.348999 -4.638367 0.201412 11.158641 9.502799 18.615814 1.846745 0.000000 0.000000 0.000000 -7.191342 0.150851 -20.539540 4.859446 -13.429127 98.776709 -1.219360 -4.776756 3.623973 0.000000 0.000000 0.000000 -1.943888 -0.009142 -0.301282 -2.488594 1.096047 1.891600 0.048679 2.539863 6.227324 8.668574 -3.582437 -14.288615 0.000000 0.000000 0.000000 -14.191539 -0.552799 -2.854403 -53.966315 10.828648 -11.424458 -4.983666 -19.669186 1.237298 0.000000 0.000000 0.000000 17.793525 4.786159 3.372804 59.095107 6.653431 -2.884603 -5.628787 36.296742 0.602634 0.000000 0.000000 0.000000 
0.094227 0.931160 0.420174 -8.219309 8.433735 -2.412848 -0.919546 -0.988203 -9.970999 -5.322834 0.456259 11.102762 10.207978 20.349114 3.097411 0.000000 0.000000 0.000000 -4.043312 0.616292 -10.156968 8.374521 -11.384812 83.861826 -3.873156 -10.313763 2.468615 0.000000 0.000000 0.000000 -1.968168 0.057349 -3.015279 -4.343434 2.043418 1.885197 1.291445 3.074475 5.842558 6.316782 -2.180601 -14.708784 0.000000 0.000000 0.000000 -14.762191 0.150761 -2.868459 -53.997613 10.957317 -11.408067 -4.806160 -18.628587 1.233853 0.000000 0.000000 0.000000 17.272253 5.075496 2.925682 59.251188 7.384999 -2.396075 -3.060868 36.707934 1.182753 0.000000 0.000000 0.000000 
0.091616 0.924383 0.402415 -5.728486 3.930114 -0.981258 -3.729105 -1.606657 -13.128539 -5.855538 0.707409 12.264830 12.648148 24.617489 7.101805 0.000000 0.000000 0.000000 -2.156245 -0.044538 0.827903 10.022540 -7.094591 66.009034 -3.729956 -10.706181 5.511322 0.000000 0.000000 0.000000 -2.130679 0.081828 -3.625592 -6.183833 2.990018 1.634657 2.665127 3.666969 4.674633 4.321826 -1.266219 -13.643519 0.000000 0.000000 0.000000 -14.933975 1.208647 -2.996731 -54.400246 10.705491 -11.280281 -4.253766 -18.858079 1.227761 0.000000 0.000000 0.000000 16.370412 5.597749 2.586495 59.346046 7.671985 -2.042127 0.203300 37.912555 2.017078 0.000000 0.000000 0.000000 
0.087496 0.918375 0.377429 -4.315577 -0.540121 0.251468 -3.516762 -2.080715 -17.397543 -8.790856 1.579946 13.638048 15.274154 28.386102 9.981995 0.000000 0.000000 0.000000 -1.098067 -0.745930 8.490546 8.787441 -3.023282 50.677096 -2.810445 -9.754779 9.460179 0.000000 0.000000 0.000000 -1.881046 0.131928 -4.534508 -7.183500 3.539269 1.817208 3.585121 3.892580 3.818498 3.243849 -0.692562 -14.453790 0.000000 0.000000 0.000000 -14.715043 1.438231 -2.651026 -55.304337 9.688960 -10.932689 -4.149840 -19.710499 1.346081 0.000000 0.000000 0.000000 15.037261 5.042508 1.720852 60.134967 7.621043 -1.901103 4.082567 37.668492 2.971882 0.000000 0.000000 0.000000 
0.082234 0.907901 0.345301 -2.232425 -5.552402 1.449557 -3.661376 -2.545299 -22.512394 -9.378050 2.106845 15.389554 18.171449 32.090368 12.041408 0.000000 0.000000 0.000000 -2.205286 -0.788975 12.499222 5.167939 0.075815 37.657216 1.777655 -2.256285 12.378770 0.000000 0.000000 0.000000 -2.418294 0.165792 -5.204568 -8.379449 4.279124 2.711835 4.448063 4.904130 3.225266 2.408302 -0.375450 -14.034287 0.000000 0.000000 0.000000 -16.289106 1.226739 -2.458603 -54.087909 7.755888 -9.670942 -4.276615 -20.345905 1.473754 0.000000 0.000000 0.000000 15.476476 5.407182 1.497486 59.433216 8.419573 -1.408770 5.995729 37.201283 3.322598 0.000000 0.000000 0.000000 
0.075703 0.899006 0.306185 -2.227409 -9.606916 2.194307 -0.599597 -2.013673 -26.743150 -11.321753 3.042681 16.790946 19.755287 33.376628 14.527625 0.000000 0.000000 0.000000 -1.234478 -0.917229 14.548691 2.443858 1.188139 29.224320 5.012815 3.271170 12.479410 0.000000 0.000000 0.000000 -0.869041 0.260885 -5.794568 -9.777549 4.891076 1.040433 5.333584 5.706369 4.819250 2.040730 -0.370794 -13.183188 0.000000 0.000000 0.000000 -18.144158 1.497130 -2.478103 -51.584753 7.638552 -9.220707 -6.002496 -23.415032 2.142475 0.000000 0.000000 0.000000 16.924864 5.777088 1.334355 57.868903 7.897011 -1.765492 8.089079 37.156553 3.856764 0.000000 0.000000 0.000000 
0.069051 0.889509 0.261215 -1.752293 -12.145387 2.519048 1.166016 -1.481659 -30.154271 -11.297017 3.381385 18.348756 18.284215 31.518200 12.982571 0.000000 0.000000 0.000000 -0.187821 -1.099035 16.511690 0.150631 1.358978 20.843089 2.809619 4.492565 3.057596 0.000000 0.000000 0.000000 -0.524146 0.256055 -5.238826 -9.422435 4.678685 0.537135 5.685840 6.779809 6.009737 1.678314 -0.058863 -14.587892 0.000000 0.000000 0.000000 -19.429378 1.094594 -2.303364 -50.841680 5.026330 -8.115669 -5.408967 -24.600366 2.162162 0.000000 0.000000 0.000000 17.374886 6.649774 1.723663 57.608000 9.258498 -1.188549 6.939849 36.597057 3.423909 0.000000 0.000000 0.000000 
0.061908 0.884205 0.213033 -2.578824 -13.966661 2.668962 5.220262 -0.086890 -32.341966 -13.148385 4.258443 19.339214 17.836957 30.365612 13.875760 0.000000 0.000000 0.000000 0.692428 -1.263161 18.079480 0.407398 0.773204 14.055375 0.446424 4.992744 -4.890554 0.000000 0.000000 0.000000 0.537978 0.209281 -3.924662 -9.092213 4.482300 0.160476 5.795468 7.352609 5.810356 2.059775 -0.281604 -15.172203 0.000000 0.000000 0.000000 -19.949514 0.650315 -2.022380 -50.471768 4.431261 -7.812493 -4.655762 -27.016641 2.233243 0.000000 0.000000 0.000000 18.315857 7.259337 1.896902 56.402947 8.731189 -1.377612 8.183389 34.339103 3.496899 0.000000 0.000000 0.000000 
0.054501 0.883902 0.165181 -2.549592 -14.167062 1.594919 6.510361 0.418880 -33.629290 -13.218338 4.385730 20.059894 17.699660 29.237783 17.187801 0.000000 0.000000 0.000000 2.409574 -1.607787 18.213520 0.299674 0.583579 11.144277 -1.359618 6.957399 -12.289439 0.000000 0.000000 0.000000 0.905561 0.066809 -1.450008 -7.878128 3.899279 0.369210 5.341037 7.772046 5.564815 2.965199 -0.781753 -15.291428 0.000000 0.000000 0.000000 -19.299217 0.419946 -1.938571 -51.240350 3.354320 -7.485884 -5.046761 -29.452545 2.528735 0.000000 0.000000 0.000000 17.785939 6.592275 1.661700 56.836025 8.269371 -1.618430 8.521795 33.601805 3.543384 0.000000 0.000000 0.000000 
